<?xml version="1.0" encoding="iso-8859-1"?>
<!-- Generator: Adobe Illustrator 18.0.0, SVG Export Plug-In . SVG Version: 6.00 Build 0)  -->
<!DOCTYPE svg PUBLIC "-//W3C//DTD SVG 1.1//EN" "http://www.w3.org/Graphics/SVG/1.1/DTD/svg11.dtd">
<svg version="1.1" id="Capa_1" xmlns="http://www.w3.org/2000/svg" xmlns:xlink="http://www.w3.org/1999/xlink" x="0px" y="0px"
	 viewBox="0 0 432.1 432.1" style="enable-background:new 0 0 432.1 432.1;" xml:space="preserve">
<g>
	<path d="M95.232,184.015c-2.531-1.105-5.478,0.052-6.582,2.583c-8.012,18.361-2.451,41.469,16.084,66.825
		c13.515,18.489,29.012,31.669,29.665,32.221c0.939,0.794,2.085,1.182,3.225,1.182c1.421,0,2.832-0.603,3.821-1.772
		c1.782-2.109,1.518-5.264-0.591-7.046c-0.151-0.128-15.23-12.95-28.047-30.485C92.193,219.319,93.276,201,97.815,190.598
		C98.92,188.066,97.764,185.119,95.232,184.015z"/>
	<path d="M108.491,189.169c-2.543-1.069-5.477,0.123-6.549,2.668c-13.073,31.049,22.685,63.495,24.214,64.861
		c0.954,0.853,2.144,1.271,3.33,1.271c1.375,0,2.743-0.563,3.73-1.668c1.84-2.06,1.663-5.221-0.396-7.061
		c-0.082-0.073-8.261-7.435-15.027-18.018c-8.635-13.506-10.867-25.452-6.633-35.506
		C112.23,193.173,111.036,190.241,108.491,189.169z"/>
	<path d="M286.031,294.588c2.553-1.051,3.771-3.974,2.72-6.526c-1.051-2.554-3.973-3.772-6.527-2.72
		c-72.747,29.952-157.598,0.22-158.447-0.084c-2.597-0.93-5.461,0.418-6.394,3.018c-0.933,2.6,0.418,5.463,3.017,6.396
		c0.905,0.325,22.522,8.001,53.787,11.908c12.184,1.523,23.551,2.182,34.101,2.182C243.151,308.761,269.085,301.565,286.031,294.588
		z"/>
	<path d="M310.92,271.352c-2.512,1.138-3.629,4.095-2.495,6.609c0.834,1.851,2.655,2.946,4.561,2.946
		c0.687,0,1.385-0.143,2.052-0.442c0.48-0.217,11.883-5.43,21.583-15.998c13.242-14.428,16.938-31.753,10.691-50.104
		c-0.89-2.613-3.731-4.01-6.345-3.122c-2.614,0.89-4.012,3.73-3.122,6.345C349.94,253.112,312.528,270.62,310.92,271.352z"/>
	<path d="M309.647,239c-0.768-2.651-3.542-4.181-6.193-3.412c-0.542,0.156-55.09,15.253-127.181-24.005
		c-2.424-1.318-5.461-0.424-6.782,2c-1.321,2.426-0.425,5.462,2,6.783c42.442,23.111,78.917,28.323,103.185,28.323
		c18.997,0,30.515-3.194,31.559-3.496C308.887,244.426,310.415,241.652,309.647,239z"/>
	<path d="M280.452,263.09c2.729-0.422,4.599-2.977,4.177-5.705c-0.422-2.729-2.98-4.597-5.706-4.178
		c-68.292,10.56-118.729-38.025-119.291-38.576c-1.967-1.934-5.13-1.914-7.069,0.054c-1.938,1.967-1.916,5.132,0.051,7.07
		c0.55,0.543,13.742,13.427,36.074,25.017c16.766,8.701,41.452,17.937,70.688,17.937C266.17,264.708,273.21,264.21,280.452,263.09z"
		/>
	<path d="M140.035,231.185c0.805,1.301,19.98,32.055,42.644,49.43c0.205,0.157,0.42,0.29,0.639,0.411
		c-14.852-1.238-24.48-3.307-24.641-3.343c-2.696-0.591-5.362,1.113-5.956,3.81c-0.593,2.697,1.112,5.364,3.809,5.957
		c0.979,0.216,20.79,4.492,48.155,4.492c5.105,0,10.476-0.148,16.034-0.5c47.219-2.99,85.284-19.503,110.08-47.751
		c1.822-2.076,1.616-5.235-0.459-7.057c-2.075-1.82-5.234-1.617-7.056,0.459c-29.003,33.043-71.986,42.356-102.937,44.352
		c-12.116,0.782-23.386,0.534-32.898-0.109c0.859-0.315,1.642-0.866,2.24-1.646c1.68-2.191,1.265-5.33-0.926-7.01
		c-21.191-16.247-40.038-46.455-40.225-46.759c-1.454-2.347-4.536-3.07-6.883-1.617S138.582,228.837,140.035,231.185z"/>
	<path d="M185.857,247.543c-1.768-2.114-4.916-2.4-7.037-0.635c-2.122,1.768-2.409,4.921-0.642,7.042
		c0.632,0.758,15.754,18.657,40.784,26.716c0.509,0.164,1.025,0.241,1.533,0.241c2.113,0,4.076-1.35,4.758-3.469
		c0.846-2.629-0.599-5.445-3.227-6.292C199.854,264.008,185.995,247.707,185.857,247.543z"/>
	<path d="M338.044,164.638c-2.01,1.894-2.105,5.058-0.211,7.067c15.043,15.973,8.998,22.451,7.011,24.58
		c-7.148,7.658-24.555,9.557-49.014,5.35c-19.711-3.392-37.235-9.549-37.41-9.611c-0.116-0.041-0.235-0.078-0.354-0.11
		c-0.277-0.075-27.816-7.644-38.973-16.168c-2.195-1.676-5.333-1.256-7.009,0.938c-1.676,2.194-1.257,5.332,0.938,7.009
		c12.334,9.423,39.533,17.074,42.238,17.82c2.026,0.708,19.063,6.556,38.746,9.955c9.201,1.589,17.458,2.383,24.759,2.383
		c15.525-0.001,26.714-3.59,33.39-10.743c6.583-7.053,10.705-19.415-7.042-38.258C343.219,162.84,340.055,162.745,338.044,164.638z"
		/>
	<path d="M271.482,174.184c-2.648-0.784-5.429,0.734-6.209,3.383c-0.781,2.648,0.734,5.429,3.383,6.209
		c0.149,0.044,15.108,4.438,30.441,7.796c12.738,2.789,21.287,3.964,27.108,3.964c7.205,0,10.231-1.8,11.843-4.565
		c3.333-5.716-2.615-11.472-4.57-13.363c-1.983-1.92-5.149-1.867-7.07,0.115c-1.92,1.984-1.869,5.15,0.116,7.07
		c0.299,0.29,0.564,0.557,0.798,0.803C318.093,185.948,292.862,180.482,271.482,174.184z"/>
	<path d="M285.768,219.887c-0.136,0.017-13.818,1.509-33.866-2.885c-18.453-4.044-46.26-14.057-73.948-38.792
		c-2.06-1.841-5.221-1.662-7.06,0.397s-1.662,5.22,0.398,7.06c44.807,40.029,89.747,44.518,107.64,44.518
		c4.679,0,7.509-0.308,8.003-0.366c2.739-0.324,4.693-2.804,4.374-5.543C290.989,221.535,288.5,219.579,285.768,219.887z"/>
	<path d="M134.188,202.587c0.967,0.916,2.204,1.37,3.438,1.37c1.325,0,2.647-0.523,3.631-1.562c1.899-2.004,1.813-5.169-0.191-7.068
		c-21.785-20.639-28.819-45.496-20.908-73.884c6.054-21.722,18.971-37.525,19.097-37.679c0.037-0.044,0.073-0.089,0.108-0.135
		c0.304-0.394,30.906-39.268,72.961-32.089c2.722,0.465,5.305-1.365,5.77-4.087c0.465-2.723-1.365-5.306-4.087-5.771
		c-47.426-8.1-80.492,33.184-82.504,35.764c-1.112,1.356-14.345,17.811-20.885,40.981
		C104.336,140.684,103.327,173.35,134.188,202.587z"/>
	<path d="M144.92,85.468c-0.426,0.5-10.5,12.441-16.657,30.639c-8.253,24.392-5.443,48.353,8.127,69.291
		c0.957,1.478,2.562,2.282,4.201,2.282c0.932,0,1.874-0.261,2.714-0.805c2.317-1.502,2.979-4.598,1.477-6.915
		c-11.956-18.45-14.362-38.749-7.152-60.333c5.473-16.382,14.716-27.452,14.902-27.674c1.789-2.102,1.537-5.256-0.563-7.046
		C149.866,83.115,146.711,83.365,144.92,85.468z"/>
	<path d="M103.908,181.004c0.821,0.511,1.731,0.755,2.63,0.755c1.661,0,3.284-0.831,4.235-2.343
		c1.466-2.329,0.763-5.411-1.559-6.889c-0.116-0.073-11.617-7.538-13.858-22.035c-2.061-13.328,3.991-28.553,17.988-45.251
		c1.774-2.116,1.496-5.27-0.62-7.044c-2.116-1.773-5.269-1.497-7.044,0.62c-15.995,19.082-22.783,37.049-20.175,53.4
		C88.536,171.235,103.282,180.614,103.908,181.004z"/>
	<path d="M160.931,125.128c-2.364-1.428-5.437-0.671-6.866,1.691c-8.664,14.327-9.903,31.433-3.585,49.467
		c4.661,13.303,11.773,22.422,12.074,22.804c0.987,1.253,2.452,1.907,3.932,1.907c1.083,0,2.173-0.35,3.089-1.071
		c2.17-1.708,2.544-4.852,0.836-7.021c-0.252-0.32-25.037-32.387-7.789-60.911C164.052,129.631,163.294,126.557,160.931,125.128z"/>
	<path d="M164.759,147.251c-2.403,1.361-3.248,4.412-1.888,6.814c0.466,0.824,11.596,20.223,27.242,25.236
		c0.507,0.162,1.021,0.239,1.527,0.239c2.115,0,4.081-1.353,4.761-3.476c0.842-2.629-0.606-5.444-3.236-6.287
		c-11.905-3.814-21.499-20.476-21.595-20.644C170.209,146.735,167.16,145.894,164.759,147.251z"/>
	<path d="M216.049,53.938c-30.908,0-56.053,18.547-56.053,41.345c0,22.797,25.146,41.344,56.053,41.344s56.053-18.547,56.053-41.344
		C272.102,72.484,246.957,53.938,216.049,53.938z M216.049,126.626c-25.394,0-46.053-14.061-46.053-31.344
		s20.659-31.345,46.053-31.345s46.053,14.062,46.053,31.345S241.443,126.626,216.049,126.626z"/>
	<path d="M366.198,124.648c-2.268-1.575-5.384-1.013-6.958,1.257c-1.574,2.269-1.011,5.384,1.257,6.958
		c39.725,27.569,61.603,64.325,61.603,103.496c0,80.086-92.434,145.24-206.05,145.24C102.434,381.599,10,316.444,10,236.358
		c0-40.944,24.798-80.226,68.037-107.773c2.329-1.483,3.014-4.574,1.53-6.903c-1.483-2.328-4.574-3.014-6.903-1.53
		C26.485,149.572,0,191.928,0,236.358c0,41.791,22.699,80.966,63.916,110.307c40.702,28.976,94.731,44.934,152.134,44.934
		c57.403,0,111.433-15.958,152.135-44.934c41.217-29.341,63.916-68.516,63.916-110.307
		C432.1,193.814,408.696,154.14,366.198,124.648z"/>
	<path d="M162.767,325.433c-2.647-0.78-5.429,0.729-6.212,3.377c-0.783,2.648,0.729,5.43,3.377,6.213
		c5.344,1.58,10.874,2.945,16.437,4.059c0.332,0.066,0.661,0.099,0.987,0.099c2.334,0,4.422-1.644,4.897-4.02
		c0.542-2.708-1.214-5.342-3.921-5.884C173.062,328.221,167.825,326.928,162.767,325.433z"/>
	<path d="M77.889,210.317c-2.645-0.797-5.432,0.712-6.223,3.358c-2.213,7.404-3.336,15.036-3.336,22.683
		c0,36.165,25.004,69.545,66.885,89.29c0.689,0.325,1.415,0.479,2.129,0.479c1.875,0,3.673-1.061,4.526-2.869
		c1.178-2.497,0.107-5.477-2.39-6.654c-38.29-18.053-61.149-48.051-61.149-80.245c0-6.676,0.981-13.344,2.917-19.819
		C82.038,213.894,80.534,211.107,77.889,210.317z"/>
	<path d="M361.318,216.874c-0.682-2.675-3.404-4.29-6.08-3.609c-2.676,0.682-4.292,3.403-3.61,6.079
		c1.421,5.577,2.142,11.302,2.142,17.015c0,21.362-9.743,41.526-28.206,58.47c-2.847-1.03-5.513-2.645-6.012-5.144
		c-0.541-2.708-3.18-4.458-5.883-3.923c-2.708,0.542-4.464,3.176-3.922,5.884c1.533,7.666,8.823,12.841,20.527,14.571
		c0.714,0.105,1.217,0.718,1.17,1.424c-0.043,0.648-0.542,1.175-1.185,1.252c-18.247,2.183-26.332-13.137-26.685-13.824
		c-1.242-2.456-4.236-3.45-6.699-2.216c-2.47,1.234-3.471,4.238-2.236,6.708c0.229,0.457,3.114,6.064,9.129,11.157
		c-24.671,14.372-55.486,22.241-87.718,22.241c-6.427,0-12.891-0.314-19.211-0.936c-2.742-0.274-5.195,1.739-5.465,4.486
		c-0.27,2.748,1.739,5.195,4.487,5.465c6.644,0.653,13.436,0.984,20.188,0.984c35.995,0,70.44-9.348,97.361-26.37
		c3.777,1.532,8.158,2.527,13.197,2.527c1.549,0,3.163-0.094,4.836-0.293c5.417-0.647,9.613-5.07,9.976-10.517
		c0.273-4.1-1.734-7.903-4.957-10.115c17.67-17.942,27.307-39.62,27.307-61.832C363.77,229.814,362.945,223.258,361.318,216.874z"/>
	<path d="M236.059,69.528c-3.815-1.65-7.948-2.807-12.283-3.438c-2.73-0.401-5.271,1.493-5.669,4.227
		c-0.398,2.732,1.494,5.271,4.227,5.668c3.466,0.506,6.749,1.421,9.757,2.722c0.646,0.28,1.319,0.412,1.982,0.412
		c1.934,0,3.775-1.129,4.592-3.017C239.76,73.567,238.594,70.624,236.059,69.528z"/>
	<path d="M243.064,79.074c-2.148,1.735-2.483,4.884-0.748,7.031c2.319,2.871,3.495,5.959,3.495,9.177
		c0,5.525-3.449,9.615-6.342,12.073c-2.104,1.788-2.361,4.943-0.573,7.048c0.989,1.164,2.396,1.763,3.813,1.763
		c1.144,0,2.294-0.391,3.235-1.189c6.363-5.406,9.868-12.4,9.868-19.694c0-5.484-1.977-10.831-5.716-15.46
		C248.36,77.673,245.211,77.339,243.064,79.074z"/>
	<path d="M256.56,157.043c-11.829,2.632-22.008,2.877-22.11,2.879c-2.759,0.058-4.951,2.34-4.895,5.1
		c0.055,2.727,2.283,4.899,4.997,4.899c0.034,0,0.068,0,0.103-0.001c1.809-0.036,44.497-1.146,61.382-23.057
		c6.515-8.453,8.375-18.705,5.528-30.472c-0.649-2.684-3.349-4.332-6.036-3.684c-2.684,0.648-4.333,3.352-3.684,6.035
		c2.127,8.792,0.91,15.989-3.721,22.005C281.007,149.994,267.031,154.713,256.56,157.043z"/>
	<path d="M319.952,106.891c0.992,0.242,24.287,6.235,24.287,31.395c0,20.237-41.342,25.686-57.272,26.076
		c-2.76,0.068-4.943,2.36-4.876,5.12c0.066,2.719,2.29,4.879,4.995,4.879c0.041,0,0.081,0,0.122-0.001
		c2.737-0.065,67.032-1.988,67.032-36.074c0-26.539-20.908-38.503-31.964-41.121c-2.681-0.636-5.359,1.02-6.004,3.697
		C315.625,103.538,317.277,106.235,319.952,106.891z"/>
	<path d="M308.244,117.463c-0.875,2.616,0.538,5.448,3.153,6.327c7.387,2.479,15.61,7.727,15.141,10.775
		c-0.527,3.43-11.139,7.655-20.271,9.142c-2.727,0.44-4.58,3.007-4.14,5.732c0.396,2.457,2.519,4.205,4.93,4.205
		c0.264,0,0.532-0.021,0.802-0.064c4.43-0.715,26.628-4.916,28.563-17.494c0.656-4.262-0.733-10.637-11.075-16.802
		c-5.215-3.108-10.558-4.905-10.783-4.979C311.946,113.431,309.12,114.846,308.244,117.463z"/>
	<path d="M277.219,65.684c0.245,0.139,24.427,14.104,21.926,33.486c-0.354,2.738,1.581,5.245,4.319,5.599
		c0.217,0.028,0.433,0.042,0.646,0.042c2.476,0,4.627-1.84,4.953-4.361c3.351-25.969-25.671-42.761-26.908-43.463
		c-2.402-1.363-5.454-0.521-6.817,1.881C273.976,61.269,274.818,64.32,277.219,65.684z"/>
	<path d="M129.837,210.752l-9.578-2.873c-0.868,2.892-3.511,19.413,29.748,60.801c0.988,1.229,2.438,1.868,3.9,1.868
		c1.099,0,2.206-0.36,3.129-1.103c2.153-1.729,2.496-4.877,0.766-7.029c-30.154-37.525-27.923-51.785-27.896-51.925
		C129.873,210.669,129.837,210.752,129.837,210.752z"/>
	<path d="M275.311,134.97c-73.864,21.831-96.887-0.319-97.339-0.773c-1.867-1.993-4.997-2.122-7.021-0.273
		c-2.039,1.862-2.183,5.024-0.321,7.063c0.716,0.784,12.982,13.603,47.173,13.603c15.37,0,35.17-2.591,60.342-10.029
		c2.648-0.782,4.161-3.563,3.378-6.212C280.741,135.699,277.962,134.188,275.311,134.97z"/>
	<path d="M264.545,120.298c-2.209,1.657-2.657,4.791-1,7c0.982,1.31,2.483,2,4.004,2c1.044,0,2.097-0.325,2.996-1
		c20.108-15.081,16.337-38.886,11.534-49.365c-1.15-2.512-4.12-3.612-6.629-2.462c-2.51,1.15-3.612,4.118-2.462,6.628
		C273.418,84.037,283.301,106.231,264.545,120.298z"/>
	<path d="M230.655,50.495c5.342,0.29,20.552,2.388,26.696,8.53c0.977,0.977,2.256,1.465,3.536,1.465s2.56-0.488,3.536-1.465
		c1.953-1.952,1.953-5.118,0-7.07c-4.371-4.371-11.364-7.626-20.785-9.674c-6.699-1.457-12.22-1.76-12.452-1.772
		c-2.746-0.149-5.106,1.971-5.253,4.727S227.9,50.346,230.655,50.495z"/>
</g>
<g>
</g>
<g>
</g>
<g>
</g>
<g>
</g>
<g>
</g>
<g>
</g>
<g>
</g>
<g>
</g>
<g>
</g>
<g>
</g>
<g>
</g>
<g>
</g>
<g>
</g>
<g>
</g>
<g>
</g>
</svg>
